<svg width="16" height="16" viewBox="0 0 16 16" fill="none" xmlns="http://www.w3.org/2000/svg">
<g clip-path="url(#clip0_435_1883)">
<path d="M14.6213 8.83066L12.0189 10.3036L9.68469 7.98398L12.0375 5.64582L14.6213 7.10808C14.7738 7.19431 14.9007 7.31949 14.989 7.47081C15.0772 7.62214 15.1238 7.79418 15.1238 7.96937C15.1238 8.14456 15.0772 8.31661 14.989 8.46793C14.9007 8.61926 14.7738 8.74443 14.6213 8.83066ZM0.887852 0.613552C0.838572 0.733189 0.813301 0.86135 0.813477 0.990739V14.9473C0.813477 15.0914 0.84336 15.2256 0.895821 15.3458L8.30344 7.98332L0.887852 0.613552ZM8.99406 7.29734L11.1576 5.14711L2.29102 0.12945C2.10097 0.0202352 1.87962 -0.0216469 1.66281 0.0105828L8.99406 7.29734ZM8.99406 8.66996L1.68938 15.9302C1.88727 15.9541 2.09578 15.9195 2.29102 15.8086L11.139 10.8016L8.99406 8.66996Z" fill="#C9C9C9"/>
</g>
<defs>
<clipPath id="clip0_435_1883">
<rect width="15.9375" height="15.9375" fill="white"/>
</clipPath>
</defs>
</svg>
