<svg width="40" height="33" viewBox="0 0 40 33" fill="none" xmlns="http://www.w3.org/2000/svg">
<path d="M37.19 14.5829V27.7506C37.19 28.1726 37.0953 28.5683 36.9058 28.9376C36.7164 29.3069 36.4575 29.6287 36.1291 29.903C35.8008 30.1773 35.4156 30.3936 34.9735 30.5519C34.5315 30.7102 34.0579 30.7893 33.5527 30.7893H6.87967C6.3745 30.7893 5.9009 30.7102 5.45887 30.5519C5.01685 30.3936 4.63166 30.1773 4.30329 29.903C3.97493 29.6287 3.71603 29.3069 3.52659 28.9376C3.33715 28.5683 3.24243 28.1726 3.24243 27.7506V19.7265C3.24243 19.3361 3.24875 18.9827 3.26138 18.6661C3.27401 18.3496 3.28664 18.0384 3.29926 17.7324C3.31189 17.4264 3.31821 17.1099 3.31821 16.7828C3.31821 16.4557 3.29295 16.1022 3.24243 15.7224C3.21717 15.5008 3.17929 15.3004 3.12877 15.121C3.07825 14.9416 3.02774 14.7623 2.97722 14.5829C2.9267 14.4035 2.86355 14.2347 2.78778 14.0764C2.712 13.9182 2.64254 13.7177 2.5794 13.475L1.23438 8.96444L34.159 2.0957L36.508 9.96152L14.3246 14.5829H37.19ZM13.7184 8.44217L7.63743 9.70829L14.3057 12.4938L20.3867 11.2276L13.7184 8.44217ZM24.005 10.4838L30.1049 9.20184L23.4367 6.43219L17.3367 7.69832L24.005 10.4838ZM4.18963 10.5471L5.34521 14.3613L10.6874 13.2534L4.18963 10.5471ZM32.3972 4.54882L27.055 5.67251L33.5338 8.37886L32.3972 4.54882ZM34.7652 16.6087H5.66726V27.7506C5.66726 28.0249 5.78724 28.2623 6.02719 28.4628C6.26715 28.6633 6.55131 28.7635 6.87967 28.7635H33.5527C33.8811 28.7635 34.1653 28.6633 34.4052 28.4628C34.6452 28.2623 34.7652 28.0249 34.7652 27.7506V16.6087Z" fill="#D6D6D6"/>
</svg>
