<svg width="82" height="25" viewBox="0 0 82 25" fill="none" xmlns="http://www.w3.org/2000/svg">
<path d="M12.4652 6.76602C12.4652 7.63372 12.2561 8.4472 11.8377 9.20645C11.4348 9.96569 10.7918 10.5777 9.90859 11.0426C9.04089 11.5074 7.94076 11.7398 6.6082 11.7398H3.88887V17.9688H0.634961V1.7457H6.6082C7.86328 1.7457 8.93242 1.96263 9.81563 2.39648C10.6988 2.83034 11.3574 3.42689 11.7912 4.18613C12.2406 4.94538 12.4652 5.80534 12.4652 6.76602ZM6.46875 9.11348C7.36745 9.11348 8.03372 8.91204 8.46758 8.50918C8.90143 8.09082 9.11836 7.50977 9.11836 6.76602C9.11836 5.18555 8.23516 4.39531 6.46875 4.39531H3.88887V9.11348H6.46875ZM18.0294 0.769531V17.9688H14.7755V0.769531H18.0294ZM20.4075 11.4842C20.4075 10.1826 20.6632 9.02825 21.1745 8.02109C21.7013 7.01393 22.4064 6.23919 23.2896 5.69688C24.1883 5.15456 25.1877 4.8834 26.2878 4.8834C27.2485 4.8834 28.0852 5.07708 28.798 5.46445C29.5262 5.85182 30.1073 6.33991 30.5411 6.92871V5.09258H33.8183V17.9688H30.5411V16.0861C30.1228 16.6904 29.5417 17.194 28.798 17.5969C28.0697 17.9842 27.2252 18.1779 26.2646 18.1779C25.1799 18.1779 24.1883 17.899 23.2896 17.3412C22.4064 16.7834 21.7013 16.0009 21.1745 14.9937C20.6632 13.9711 20.4075 12.8012 20.4075 11.4842ZM30.5411 11.5307C30.5411 10.7404 30.3862 10.0664 30.0763 9.50859C29.7664 8.93529 29.348 8.50143 28.8212 8.20703C28.2944 7.89713 27.7288 7.74219 27.1245 7.74219C26.5202 7.74219 25.9624 7.88939 25.4511 8.18379C24.9398 8.47819 24.5214 8.91204 24.196 9.48535C23.8861 10.0432 23.7312 10.7094 23.7312 11.4842C23.7312 12.2589 23.8861 12.9407 24.196 13.5295C24.5214 14.1028 24.9398 14.5444 25.4511 14.8543C25.9779 15.1642 26.5357 15.3191 27.1245 15.3191C27.7288 15.3191 28.2944 15.1719 28.8212 14.8775C29.348 14.5676 29.7664 14.1338 30.0763 13.576C30.3862 13.0027 30.5411 12.3209 30.5411 11.5307ZM49.3146 5.09258L41.3426 24.0582H37.8795L40.6685 17.6434L35.5088 5.09258H39.1578L42.4814 14.0873L45.8515 5.09258H49.3146ZM58.5992 18.1314C57.0807 18.1314 55.6861 17.7751 54.4156 17.0623C53.145 16.3495 52.1378 15.3656 51.3941 14.1105C50.6503 12.84 50.2785 11.4067 50.2785 9.81074C50.2785 8.23027 50.6503 6.8125 51.3941 5.55742C52.1378 4.28685 53.145 3.29518 54.4156 2.58242C55.6861 1.86966 57.0807 1.51328 58.5992 1.51328C60.1331 1.51328 61.5277 1.86966 62.7828 2.58242C64.0533 3.29518 65.0527 4.28685 65.781 5.55742C66.5247 6.8125 66.8966 8.23027 66.8966 9.81074C66.8966 11.4067 66.5247 12.84 65.781 14.1105C65.0527 15.3656 64.0533 16.3495 62.7828 17.0623C61.5122 17.7751 60.1177 18.1314 58.5992 18.1314ZM58.5992 15.2262C59.5753 15.2262 60.4353 15.0092 61.179 14.5754C61.9228 14.126 62.5038 13.4908 62.9222 12.6695C63.3406 11.8483 63.5497 10.8954 63.5497 9.81074C63.5497 8.72611 63.3406 7.78092 62.9222 6.97519C62.5038 6.15397 61.9228 5.52643 61.179 5.09258C60.4353 4.65872 59.5753 4.4418 58.5992 4.4418C57.623 4.4418 56.7553 4.65872 55.996 5.09258C55.2523 5.52643 54.6712 6.15397 54.2529 6.97519C53.8345 7.78092 53.6253 8.72611 53.6253 9.81074C53.6253 10.8954 53.8345 11.8483 54.2529 12.6695C54.6712 13.4908 55.2523 14.126 55.996 14.5754C56.7553 15.0092 57.623 15.2262 58.5992 15.2262ZM76.4528 4.90664C77.9868 4.90664 79.2264 5.39473 80.1715 6.3709C81.1167 7.33158 81.5893 8.67962 81.5893 10.415V17.9688H78.3354V10.8566C78.3354 9.83398 78.0797 9.0515 77.5684 8.50918C77.0571 7.95137 76.3598 7.67246 75.4766 7.67246C74.5779 7.67246 73.8652 7.95137 73.3383 8.50918C72.827 9.0515 72.5713 9.83398 72.5713 10.8566V17.9688H69.3174V5.09258H72.5713V6.69629C73.0052 6.13848 73.5553 5.70462 74.2215 5.39473C74.9033 5.06934 75.6471 4.90664 76.4528 4.90664Z" fill="url(#paint0_radial_435_1612)"/>
<defs>
<radialGradient id="paint0_radial_435_1612" cx="0" cy="0" r="1" gradientUnits="userSpaceOnUse" gradientTransform="translate(73.4063 9.46875) rotate(165.889) scale(54.778 121.681)">
<stop stop-color="#FF2C78"/>
<stop offset="1" stop-color="#DCA4FF"/>
</radialGradient>
</defs>
</svg>
