<svg width="39" height="37" viewBox="0 0 39 37" fill="none" xmlns="http://www.w3.org/2000/svg">
<path d="M35.9459 10.1556C34.7327 10.7071 33.425 11.0695 32.0699 11.2428C33.4565 10.4077 34.5279 9.08422 35.0321 7.49284C33.7243 8.28065 32.2747 8.83212 30.7464 9.14724C29.5016 7.79221 27.7527 7.00439 25.7674 7.00439C22.0647 7.00439 19.0395 10.0296 19.0395 13.7638C19.0395 14.2995 19.1025 14.8195 19.2128 15.3079C13.6036 15.0243 8.60887 12.33 5.2843 8.24914C4.70132 9.24178 4.37044 10.4077 4.37044 11.6367C4.37044 13.9844 5.55215 16.0642 7.37988 17.246C6.26119 17.246 5.22127 16.9308 4.30741 16.4581V16.5054C4.30741 19.7827 6.63934 22.5243 9.72756 23.1388C8.73606 23.4101 7.69515 23.4479 6.6866 23.2491C7.11455 24.5923 7.95268 25.7676 9.08316 26.6098C10.2136 27.452 11.5796 27.9188 12.9891 27.9445C10.5999 29.8359 7.63828 30.8583 4.59102 30.8436C4.05531 30.8436 3.5196 30.8121 2.98389 30.7491C5.97757 32.6713 9.53848 33.79 13.3515 33.79C25.7674 33.79 32.5899 23.4854 32.5899 14.5516C32.5899 14.2523 32.5899 13.9687 32.5741 13.6693C33.8976 12.7239 35.0321 11.5264 35.9459 10.1556Z" fill="#9E9E9E"/>
</svg>
