<svg width="22" height="22" viewBox="0 0 22 22" fill="none" xmlns="http://www.w3.org/2000/svg">
<path d="M15.0963 17.9563C14.2286 18.7974 13.2812 18.6646 12.3692 18.2661C11.4041 17.8589 10.5187 17.8411 9.50047 18.2661C8.22547 18.8151 7.55256 18.6557 6.7911 17.9563C2.47026 13.5026 3.10776 6.72031 8.01297 6.4724C9.20829 6.53437 10.0406 7.1276 10.7401 7.18073C11.7848 6.96823 12.7854 6.35729 13.901 6.43698C15.238 6.54323 16.2473 7.07448 16.9114 8.03073C14.1489 9.68646 14.8041 13.3255 17.3364 14.3438C16.8317 15.6719 16.1765 16.9911 15.0875 17.9651L15.0963 17.9563ZM10.6515 6.41927C10.5187 4.44479 12.1213 2.81563 13.963 2.65625C14.2197 4.94062 11.8911 6.64062 10.6515 6.41927Z" fill="#C9C9C9"/>
</svg>
