<svg width="9" height="12" viewBox="0 0 9 12" fill="none" xmlns="http://www.w3.org/2000/svg">
<g clip-path="url(#clip0_437_3703)">
<path d="M6.67245 6.73552C6.71756 6.69282 6.75444 6.63567 6.77992 6.56902C6.8054 6.50236 6.81871 6.42819 6.81871 6.35288C6.81871 6.27758 6.8054 6.20341 6.77992 6.13675C6.75444 6.07009 6.71756 6.01295 6.67245 5.97025L2.27141 1.78079C2.22064 1.7323 2.16119 1.70386 2.0995 1.69857C2.03781 1.69328 1.97624 1.71134 1.92149 1.75078C1.86674 1.79022 1.82089 1.84954 1.78894 1.92229C1.75698 1.99504 1.74014 2.07844 1.74023 2.16343L1.74023 10.5423C1.74049 10.6271 1.75755 10.7102 1.78958 10.7827C1.82161 10.8551 1.8674 10.9142 1.92203 10.9536C1.97665 10.9929 2.03805 11.0111 2.09961 11.006C2.16117 11.001 2.22056 10.973 2.27141 10.925L6.67245 6.73552Z" fill="#A3A3A3"/>
</g>
<defs>
<clipPath id="clip0_437_3703">
<rect width="10.9342" height="8.32847" fill="white" transform="matrix(0 -1 1 0 0.115234 11.8193)"/>
</clipPath>
</defs>
</svg>
