<svg width="13" height="12" viewBox="0 0 13 12" fill="none" xmlns="http://www.w3.org/2000/svg">
<g clip-path="url(#clip0_435_1631)">
<path d="M1.80005 6.30827C1.80005 8.90616 3.90593 11.012 6.50383 11.012C9.10172 11.012 11.2076 8.90616 11.2076 6.30827C11.2076 3.71037 9.10172 1.60449 6.50383 1.60449C3.90593 1.60449 1.80005 3.71037 1.80005 6.30827Z" stroke="#F8F8F8" stroke-width="0.996094" stroke-linecap="round" stroke-linejoin="round"/>
<path d="M6.97425 1.62793C6.97425 1.62793 8.38538 3.48592 8.38538 6.30819C8.38538 9.13045 6.97425 10.9884 6.97425 10.9884M6.0335 10.9884C6.0335 10.9884 4.62236 9.13045 4.62236 6.30819C4.62236 3.48592 6.0335 1.62793 6.0335 1.62793M2.09644 7.95451H10.9113M2.09644 4.66187H10.9113" stroke="#F8F8F8" stroke-width="0.996094" stroke-linecap="round" stroke-linejoin="round"/>
</g>
<defs>
<clipPath id="clip0_435_1631">
<rect width="11.2891" height="11.2891" fill="white" transform="translate(0.859375 0.664062)"/>
</clipPath>
</defs>
</svg>
