<svg width="8" height="7" viewBox="0 0 8 7" fill="none" xmlns="http://www.w3.org/2000/svg">
<g clip-path="url(#clip0_435_1635)">
<path d="M3.85528 5.31573C3.88321 5.34522 3.92057 5.36934 3.96415 5.386C4.00773 5.40266 4.05623 5.41136 4.10547 5.41136C4.15471 5.41136 4.2032 5.40266 4.24679 5.386C4.29037 5.36934 4.32773 5.34522 4.35565 5.31573L7.09491 2.43813C7.12662 2.40493 7.14521 2.36606 7.14867 2.32572C7.15213 2.28539 7.14033 2.24513 7.11454 2.20933C7.08875 2.17353 7.04996 2.14356 7.0024 2.12266C6.95483 2.10177 6.9003 2.09076 6.84473 2.09082H1.36621C1.31077 2.09099 1.25644 2.10214 1.20906 2.12309C1.16169 2.14403 1.12306 2.17397 1.09733 2.20969C1.0716 2.2454 1.05974 2.28554 1.06304 2.32579C1.06633 2.36605 1.08465 2.40488 1.11603 2.43813L3.85528 5.31573Z" fill="white"/>
</g>
<defs>
<clipPath id="clip0_435_1635">
<rect width="7.30469" height="5.3125" fill="white" transform="translate(0.453125 0.984375)"/>
</clipPath>
</defs>
</svg>
