<svg width="44" height="39" viewBox="0 0 44 39" fill="none" xmlns="http://www.w3.org/2000/svg">
<path d="M21.9387 28.8125C23.849 28.8125 25.6811 28.0536 27.0319 26.7028C28.3827 25.352 29.1415 23.5199 29.1415 21.6096C29.1415 19.6993 28.3827 17.8672 27.0319 16.5164C25.6811 15.1656 23.849 14.4067 21.9387 14.4067C20.0284 14.4067 18.1963 15.1656 16.8455 16.5164C15.4947 17.8672 14.7358 19.6993 14.7358 21.6096C14.7358 23.5199 15.4947 25.352 16.8455 26.7028C18.1963 28.0536 20.0284 28.8125 21.9387 28.8125Z" stroke="#9E9E9E" stroke-width="1.62064" stroke-linecap="round" stroke-linejoin="round"/>
<path d="M5.73193 28.8116V14.4059C5.73193 12.018 6.68052 9.72793 8.36902 8.03943C10.0575 6.35093 12.3476 5.40234 14.7355 5.40234H29.1412C31.5291 5.40234 33.8192 6.35093 35.5077 8.03943C37.1962 9.72793 38.1448 12.018 38.1448 14.4059V28.8116C38.1448 31.1995 37.1962 33.4896 35.5077 35.1781C33.8192 36.8666 31.5291 37.8152 29.1412 37.8152H14.7355C12.3476 37.8152 10.0575 36.8666 8.36902 35.1781C6.68052 33.4896 5.73193 31.1995 5.73193 28.8116Z" stroke="#9E9E9E" stroke-width="1.62064"/>
<path d="M31.8418 11.7243L31.8606 11.7036" stroke="#9E9E9E" stroke-width="1.62064" stroke-linecap="round" stroke-linejoin="round"/>
</svg>
