<svg width="35" height="35" viewBox="0 0 35 35" fill="none" xmlns="http://www.w3.org/2000/svg">
<g clip-path="url(#clip0_258_1665)">
<path fill-rule="evenodd" clip-rule="evenodd" d="M28.7237 7.24392C29.0796 7.09409 29.4693 7.04242 29.852 7.09427C30.2348 7.14613 30.5966 7.29963 30.8999 7.53879C31.2032 7.77795 31.4368 8.09402 31.5765 8.45412C31.7162 8.81422 31.7568 9.20518 31.6941 9.58629L28.4269 29.4042C28.11 31.3159 26.0125 32.4121 24.2593 31.4599C22.7928 30.6633 20.6147 29.4359 18.6555 28.1553C17.6759 27.5142 14.6752 25.4614 15.044 24.0007C15.3609 22.7517 20.4029 18.0583 23.2841 15.2679C24.4149 14.1716 23.8992 13.5392 22.5638 14.5476C19.2461 17.0513 13.9232 20.8588 12.1628 21.9305C10.6099 22.8756 9.80031 23.0369 8.83225 22.8756C7.0661 22.5817 5.42818 22.1265 4.09133 21.5718C2.28485 20.8228 2.37272 18.3392 4.08989 17.616L28.7237 7.24392Z" fill="#9E9E9E"/>
</g>
<defs>
<clipPath id="clip0_258_1665">
<rect width="34.5737" height="34.5737" fill="white" transform="translate(0.23291 0.86084)"/>
</clipPath>
</defs>
</svg>
