<svg width="698" height="201" viewBox="0 0 698 201" fill="none" xmlns="http://www.w3.org/2000/svg">
<path d="M102.6 51.6C102.6 59.0667 100.8 66.0667 97.2 72.6C93.7333 79.1333 88.2 84.4 80.6 88.4C73.1333 92.4 63.6667 94.4 52.2 94.4H28.8V148H0.800001V8.4H52.2C63 8.4 72.2 10.2667 79.8 14C87.4 17.7333 93.0667 22.8667 96.8 29.4C100.667 35.9333 102.6 43.3333 102.6 51.6ZM51 71.8C58.7333 71.8 64.4667 70.0667 68.2 66.6C71.9333 63 73.8 58 73.8 51.6C73.8 38 66.2 31.2 51 31.2H28.8V71.8H51ZM150.48 -1.90735e-06V148H122.48V-1.90735e-06H150.48ZM170.944 92.2C170.944 81 173.144 71.0667 177.544 62.4C182.077 53.7333 188.144 47.0667 195.744 42.4C203.477 37.7333 212.077 35.4 221.544 35.4C229.81 35.4 237.01 37.0667 243.144 40.4C249.41 43.7333 254.41 47.9333 258.144 53V37.2H286.344V148H258.144V131.8C254.544 137 249.544 141.333 243.144 144.8C236.877 148.133 229.61 149.8 221.344 149.8C212.01 149.8 203.477 147.4 195.744 142.6C188.144 137.8 182.077 131.067 177.544 122.4C173.144 113.6 170.944 103.533 170.944 92.2ZM258.144 92.6C258.144 85.8 256.81 80 254.144 75.2C251.477 70.2667 247.877 66.5333 243.344 64C238.81 61.3333 233.944 60 228.744 60C223.544 60 218.744 61.2667 214.344 63.8C209.944 66.3333 206.344 70.0667 203.544 75C200.877 79.8 199.544 85.5333 199.544 92.2C199.544 98.8667 200.877 104.733 203.544 109.8C206.344 114.733 209.944 118.533 214.344 121.2C218.877 123.867 223.677 125.2 228.744 125.2C233.944 125.2 238.81 123.933 243.344 121.4C247.877 118.733 251.477 115 254.144 110.2C256.81 105.267 258.144 99.4 258.144 92.6ZM419.691 37.2L351.091 200.4H321.291L345.291 145.2L300.891 37.2H332.291L360.891 114.6L389.891 37.2H419.691ZM499.584 149.4C486.518 149.4 474.518 146.333 463.584 140.2C452.651 134.067 443.984 125.6 437.584 114.8C431.184 103.867 427.984 91.5333 427.984 77.8C427.984 64.2 431.184 52 437.584 41.2C443.984 30.2667 452.651 21.7333 463.584 15.6C474.518 9.46666 486.518 6.4 499.584 6.4C512.784 6.4 524.784 9.46666 535.584 15.6C546.518 21.7333 555.118 30.2667 561.384 41.2C567.784 52 570.984 64.2 570.984 77.8C570.984 91.5333 567.784 103.867 561.384 114.8C555.118 125.6 546.518 134.067 535.584 140.2C524.651 146.333 512.651 149.4 499.584 149.4ZM499.584 124.4C507.984 124.4 515.384 122.533 521.784 118.8C528.184 114.933 533.184 109.467 536.784 102.4C540.384 95.3333 542.184 87.1333 542.184 77.8C542.184 68.4667 540.384 60.3333 536.784 53.4C533.184 46.3333 528.184 40.9333 521.784 37.2C515.384 33.4667 507.984 31.6 499.584 31.6C491.184 31.6 483.718 33.4667 477.184 37.2C470.784 40.9333 465.784 46.3333 462.184 53.4C458.584 60.3333 456.784 68.4667 456.784 77.8C456.784 87.1333 458.584 95.3333 462.184 102.4C465.784 109.467 470.784 114.933 477.184 118.8C483.718 122.533 491.184 124.4 499.584 124.4ZM653.216 35.6C666.416 35.6 677.082 39.8 685.216 48.2C693.349 56.4667 697.416 68.0667 697.416 83V148H669.416V86.8C669.416 78 667.216 71.2667 662.816 66.6C658.416 61.8 652.416 59.4 644.816 59.4C637.082 59.4 630.949 61.8 626.416 66.6C622.016 71.2667 619.816 78 619.816 86.8V148H591.816V37.2H619.816V51C623.549 46.2 628.282 42.4667 634.016 39.8C639.882 37 646.282 35.6 653.216 35.6Z" fill="url(#paint0_radial_254_1066)"/>
<defs>
<radialGradient id="paint0_radial_254_1066" cx="0" cy="0" r="1" gradientUnits="userSpaceOnUse" gradientTransform="translate(638.875 82) rotate(165.834) scale(480.228 1070.53)">
<stop stop-color="#FF2C78"/>
<stop offset="1" stop-color="#DCA4FF"/>
</radialGradient>
</defs>
</svg>
